<?xml version="1.0" encoding="UTF-8"?>
<svg id="Capa_1" data-name="Capa 1" xmlns="http://www.w3.org/2000/svg" viewBox="0 0 192 192">
  <defs>
    <style>
      .cls-1 {
        fill: #6eb42e;
      }

      .cls-2 {
        fill: #595859;
      }

      .cls-3 {
        fill: #014629;
      }

      .cls-4 {
        fill: #fff;
      }

      .cls-5 {
        fill: #6db430;
      }
    </style>
  </defs>
  <g id="Objeto_generativo" data-name="Objeto generativo">
    <rect class="cls-4" width="192" height="192"/>
    <path class="cls-3" d="M132.64,119.11c-.18-.07-.35-.14-.51-.24s-.3-.19-.4-.32c-5.05-6.82-9.19-13.77-9.26-22.49-.04-4.47,1.07-9.2,3.51-12.87,7.62-7.59,16.22-14.05,25.59-19.64-11.88-6.58-25.3-9.14-38.74-9.49H20.65s.01-32.2.01-32.2h75.54c18.75-.14,37.45,5.34,52.05,17.13,4.92,3.97,9.16,8.43,12.55,13.77,7.51,11.81,8.97,25.87,3.25,38.75-5.86,13.21-17.97,22.86-31.42,27.61Z"/>
    <path class="cls-2" d="M16.46,174.84c-.17-.8-.33-1.6-.36-2.42-.15-4.32.81-9.86,1.67-14.14,2.27-11.24,6.74-21.87,12.69-31.65,5.83-9.59,14.07-19.84,22.21-27.15,5.04-4.52,10.24-9,15.92-13.09,10.79-7.75,23.08-14.45,35.03-19.03,6.35-2.43,13.11-4.52,19.8-5.74,6.75-.33,13.35-.17,20.2.92-10.07,5.46-19.29,11.93-27.62,19.66-10.75,9.96-20.47,23.32-23.17,37.89-1.75,9.48-.8,19.09,2.48,28.13,3.53,9.92,9.24,18.52,16.04,26.63h-55.14c-1.43-21.21,2.37-42.22,13.35-60.76,5.08-8.74,11.46-16.58,18.78-23.55,11.92-11.33,25.88-20.11,41.2-26.01-11.53,1.37-23.11,6.63-32.75,12.91-7.64,4.98-14.5,10.82-20.79,17.43-8.75,9.18-15.7,19.82-20.69,31.5-4.39,10.3-7.2,21.08-8.5,32.19-.64,5.49-.87,10.78-.89,16.31l-29.48-.05Z"/>
    <path class="cls-5" d="M132.64,119.11l.8,1.12c5.31,6.64,10.89,12.96,16.94,19l21.25,21.24,8.43,8.25,6.24,6.14-48.95.02c-10.68-7.71-20.55-17.07-26.76-28.76-9.11-17.23-7.31-33.21,3.6-49.05,3.53-5.05,7.5-9.62,11.79-13.89l-.4,1.28c-4.25,8.59-3.21,17.55,1.25,25.91,1.68,3.14,3.81,5.92,5.81,8.74Z"/>
    <path class="cls-1" d="M123.42,61.63c-.1.08-.17.15-.31.19l-9.71,2.62-9.64,3.31-7.57,3.16c-14.99,6.79-28.75,15.79-40.98,26.75l-2.26,2.11-5.96,5.96c-17.76,18.97-30.37,42.56-30.53,69.1-3.19-7.92-5.79-15.65-7.57-23.8-1.29-5.9-2.13-11.63-1.97-17.67.23-13.7,5.5-25.36,14.82-35.26,10.45-11.11,24.81-18.71,39.07-23.98,19.44-7.18,41.96-11.49,62.6-12.49Z"/>
  </g>
</svg>